Coordinates
version=1
nRows=38
nColumns=38
inDegrees=no

Units are S.I. units (second, meters, Newtons, ...)
If the header above contains a line with 'inDegrees', this indicates whether rotational values are in degrees (yes) or radians (no).

endheader
time	pelvis_tilt	pelvis_list	pelvis_rotation	pelvis_tx	pelvis_ty	pelvis_tz	hip_flexion_r	hip_adduction_r	hip_rotation_r	knee_angle_r	ankle_angle_r	subtalar_angle_r	mtp_angle_r	hip_flexion_l	hip_adduction_l	hip_rotation_l	knee_angle_l	ankle_angle_l	subtalar_angle_l	mtp_angle_l	lumbar_extension	lumbar_bending	lumbar_rotation	arm_flex_r	arm_add_r	arm_rot_r	elbow_flex_r	pro_sup_r	wrist_flex_r	wrist_dev_r	arm_flex_l	arm_add_l	arm_rot_l	elbow_flex_l	pro_sup_l	wrist_flex_l	wrist_dev_l
1.02	-2.74164	1.30311	-2.00703	0.900213	0.61105	0.911507	-0.36769	-0.25569	-0.271695	0.811301	0.0499901	0	0	0.202071	0.0678318	-0.386144	0.404244	-0.0620606	0	0	-0.196172	-0.142408	0.196655	0.227929	-0.489983	-0.0821671	1.65566	0.478546	0	0	0.314169	-0.337128	-0.095483	1.74658	0.564953	0	0
1.03	-2.72658	1.29999	-2.01518	0.897343	0.624804	0.912804	-0.324442	-0.273566	-0.254363	0.894823	-0.0355527	0	0	0.194843	0.0750716	-0.37942	0.424438	-0.0422043	0	0	-0.197649	-0.144959	0.190256	0.221851	-0.490874	-0.0800273	1.65356	0.481264	0	0	0.311509	-0.337208	-0.0952589	1.74622	0.572013	0	0
1.04	-2.71258	1.29814	-2.0235	0.894602	0.638519	0.913805	-0.276947	-0.288823	-0.231792	0.97681	-0.11484	0	0	0.184167	0.0837188	-0.373776	0.434686	-0.0287958	0	0	-0.197213	-0.146667	0.184655	0.216845	-0.493481	-0.0758018	1.6518	0.483438	0	0	0.308118	-0.339659	-0.0938644	1.74771	0.574206	0	0
1.05	-2.7039	1.29591	-2.02781	0.892154	0.652136	0.91471	-0.228258	-0.300104	-0.205649	1.05512	-0.190898	0	0	0.168972	0.0922677	-0.368612	0.437437	-0.0211944	0	0	-0.197674	-0.147553	0.179278	0.213668	-0.496776	-0.0702984	1.65162	0.483688	0	0	0.30454	-0.344721	-0.0920443	1.75112	0.573828	0	0
1.06	-2.6987	1.29246	-2.02961	0.890013	0.665599	0.91573	-0.180732	-0.308449	-0.178884	1.12605	-0.264258	0	0	0.150395	0.101121	-0.361172	0.43668	-0.014176	0	0	-0.200035	-0.148894	0.173529	0.211947	-0.499012	-0.0649499	1.6524	0.482447	0	0	0.301584	-0.352088	-0.0900844	1.75633	0.572145	0	0
1.07	-2.69679	1.28664	-2.02831	0.888137	0.678792	0.917096	-0.138501	-0.314355	-0.153526	1.18634	-0.324896	0	0	0.128982	0.110559	-0.351274	0.43528	-0.00709894	0	0	-0.205993	-0.151396	0.16681	0.211279	-0.499489	-0.0608968	1.6535	0.480974	0	0	0.300455	-0.360807	-0.0877153	1.76247	0.569698	0	0
1.08	-2.69781	1.27939	-2.02374	0.886463	0.691773	0.918827	-0.101787	-0.317424	-0.129675	1.23923	-0.349242	0	0	0.106518	0.119438	-0.340661	0.434535	-0.00192969	0	0	-0.214524	-0.154425	0.159231	0.210963	-0.497768	-0.0588081	1.65501	0.479457	0	0	0.300417	-0.369809	-0.0853816	1.77002	0.566328	0	0
1.09	-2.70147	1.27267	-2.01607	0.884835	0.704642	0.920816	-0.0662754	-0.317642	-0.107089	1.29305	-0.324153	0	0	0.0839	0.127407	-0.326031	0.432878	0.00386164	0	0	-0.223234	-0.156422	0.151462	0.209914	-0.495228	-0.0577308	1.65768	0.474614	0	0	0.300669	-0.377752	-0.0832645	1.77838	0.559407	0	0
1.1	-2.70602	1.27056	-2.00626	0.883161	0.71763	0.923012	-0.0282648	-0.312594	-0.0864639	1.34352	-0.268203	0	0	0.0645273	0.132654	-0.309027	0.42998	0.0109877	0	0	-0.227165	-0.158184	0.148311	0.227035	-0.460654	-0.230785	1.55163	1.35684	0	0	0.305507	-0.381601	-0.0744574	1.78363	0.552228	0	0
1.11	-2.71695	1.26792	-1.99003	0.881257	0.730545	0.925414	0.00668441	-0.30822	-0.0736893	1.3867	-0.215896	0	0	0.041734	0.136015	-0.293593	0.42454	0.0191936	0	0	-0.232301	-0.1551	0.142171	0.226097	-0.449514	-0.279727	1.55029	1.5708	0	0	0.306022	-0.383422	-0.0723575	1.78808	0.546296	0	0
1.12	-2.73266	1.26596	-1.96811	0.879297	0.743245	0.928088	0.039114	-0.30042	-0.0635684	1.42003	-0.167549	0	0	0.0170151	0.136724	-0.280346	0.416152	0.0273254	0	0	-0.237363	-0.149338	0.134041	0.222654	-0.446068	-0.283284	1.55274	1.5708	0	0	0.304753	-0.383239	-0.0739277	1.79158	0.543672	0	0
1.13	-2.75026	1.2653	-1.94449	0.877348	0.755726	0.930815	0.0709673	-0.291113	-0.0553462	1.44456	-0.128873	0	0	-0.00776879	0.135163	-0.270927	0.405836	0.0353813	0	0	-0.24124	-0.141903	0.125773	0.220138	-0.443663	-0.285184	1.5544	1.5708	0	0	0.302395	-0.38137	-0.077395	1.79421	0.541812	0	0
1.14	-2.76864	1.26527	-1.92028	0.875463	0.767883	0.93352	0.102266	-0.281199	-0.0486558	1.46182	-0.0957857	0	0	-0.0326778	0.132327	-0.263487	0.393444	0.0426931	0	0	-0.244809	-0.133791	0.117664	0.218683	-0.442318	-0.286291	1.55555	1.5708	0	0	0.300402	-0.378939	-0.081014	1.79602	0.540252	0	0
1.15	-2.78751	1.26596	-1.89527	0.87363	0.779752	0.936144	0.13294	-0.270864	-0.0441541	1.47276	-0.0659806	0	0	-0.0569911	0.128584	-0.256291	0.379653	0.0489386	0	0	-0.248063	-0.125188	0.109183	0.21845	-0.44201	-0.286264	1.55652	1.5708	0	0	0.299188	-0.376586	-0.0843902	1.79689	0.540027	0	0
1.16	-2.80662	1.26695	-1.8692	0.871816	0.791372	0.938679	0.162006	-0.26094	-0.0428849	1.47717	-0.0381206	0	0	-0.0802147	0.124183	-0.250579	0.36593	0.0537999	0	0	-0.251231	-0.116384	0.100096	0.219463	-0.442584	-0.285493	1.55697	1.5708	0	0	0.299102	-0.37508	-0.0865343	1.79723	0.540118	0	0
1.17	-2.82556	1.2679	-1.8427	0.870013	0.802836	0.941121	0.188708	-0.251929	-0.0444103	1.47457	-0.0132845	0	0	-0.102757	0.119582	-0.246051	0.352522	0.0578928	0	0	-0.254387	-0.10776	0.0909354	0.221055	-0.443926	-0.28477	1.55659	1.5708	0	0	0.300484	-0.374432	-0.086852	1.79746	0.53908	0	0
1.18	-2.84505	1.26874	-1.81524	0.868213	0.814187	0.943437	0.212741	-0.243613	-0.0487779	1.46534	0.00893438	0	0	-0.125183	0.114715	-0.23989	0.3386	0.0613169	0	0	-0.257792	-0.0990816	0.0820859	0.222878	-0.445825	-0.284797	1.55633	1.5708	0	0	0.303547	-0.374348	-0.0848362	1.79691	0.537613	0	0
1.19	-2.86517	1.26942	-1.78717	0.866417	0.82543	0.945632	0.234427	-0.235953	-0.055558	1.44985	0.0291869	0	0	-0.147847	0.109666	-0.232094	0.323636	0.0640198	0	0	-0.261707	-0.0902423	0.0737046	0.225059	-0.448091	-0.285504	1.55634	1.5708	0	0	0.307416	-0.374634	-0.081262	1.79611	0.536803	0	0
1.2	-2.88587	1.26971	-1.75855	0.864687	0.836602	0.947741	0.253473	-0.228979	-0.0644386	1.42845	0.0480061	0	0	-0.171268	0.104436	-0.222904	0.30718	0.0662533	0	0	-0.266359	-0.0812643	0.0655838	0.227631	-0.450216	-0.286995	1.55675	1.5708	0	0	0.311969	-0.375026	-0.0773461	1.79559	0.535126	0	0
1.21	-2.90731	1.26993	-1.72931	0.863054	0.847754	0.949727	0.270025	-0.22219	-0.0746461	1.40115	0.0643524	0	0	-0.195153	0.0986417	-0.213645	0.289427	0.0685711	0	0	-0.271297	-0.072109	0.0576399	0.230471	-0.452065	-0.289102	1.55744	1.5708	0	0	0.31677	-0.375441	-0.0734014	1.7957	0.533712	0	0
1.22	-2.92862	1.27015	-1.70019	0.861463	0.858897	0.951571	0.283707	-0.215797	-0.0867127	1.36761	0.0787669	0	0	-0.219144	0.0923334	-0.202802	0.271886	0.0701526	0	0	-0.276303	-0.0629758	0.0495892	0.23381	-0.453658	-0.291523	1.5581	1.5708	0	0	0.3214	-0.376112	-0.0693857	1.79657	0.530932	0	0
1.23	-2.94937	1.26989	-1.67181	0.859908	0.87001	0.95328	0.294031	-0.209855	-0.100103	1.32811	0.092243	0	0	-0.243602	0.0857709	-0.191207	0.254407	0.0709585	0	0	-0.281774	-0.0539782	0.0414694	0.237962	-0.455141	-0.293907	1.55871	1.5708	0	0	0.326072	-0.37647	-0.0657283	1.79741	0.528085	0	0
1.24	-2.96895	1.27015	-1.64476	0.858343	0.881166	0.954716	0.302135	-0.20456	-0.114719	1.2833	0.103409	0	0	-0.267133	0.0791652	-0.183689	0.236228	0.0720516	0	0	-0.286336	-0.0450408	0.033395	0.24247	-0.456747	-0.296197	1.55949	1.5708	0	0	0.330044	-0.376326	-0.0626411	1.79823	0.526298	0	0
1.25	-2.98686	1.27099	-1.61952	0.856813	0.892332	0.955852	0.308165	-0.199825	-0.13045	1.23332	0.11295	0	0	-0.289564	0.0726859	-0.177033	0.218675	0.072499	0	0	-0.289888	-0.0366266	0.0253794	0.247322	-0.458344	-0.298324	1.55992	1.5708	0	0	0.333575	-0.375743	-0.0602545	1.7991	0.524575	0	0
1.26	-3.00248	1.27234	-1.5969	0.855353	0.903542	0.956668	0.312026	-0.196002	-0.14783	1.17837	0.121361	0	0	-0.31126	0.066669	-0.16985	0.201665	0.0724151	0	0	-0.292436	-0.0289865	0.0175818	0.252364	-0.459818	-0.300415	1.56015	1.5708	0	0	0.336603	-0.375434	-0.0578502	1.80046	0.52278	0	0
1.27	-3.0157	1.27414	-1.57674	0.853931	0.914752	0.957147	0.313715	-0.193179	-0.167526	1.11883	0.128968	0	0	-0.332228	0.0612144	-0.162653	0.184667	0.0736131	0	0	-0.294257	-0.0221362	0.00990438	0.257441	-0.461288	-0.302774	1.56046	1.5708	0	0	0.339455	-0.374967	-0.0557745	1.80217	0.520322	0	0
1.28	-3.02748	1.27671	-1.55832	0.852537	0.925931	0.95725	0.31395	-0.190604	-0.188861	1.05491	0.136114	0	0	-0.351944	0.056162	-0.155103	0.167808	0.0760845	0	0	-0.295132	-0.0157498	0.00261331	0.262513	-0.462931	-0.305288	1.56093	1.5708	0	0	0.342801	-0.37435	-0.0536984	1.80263	0.515096	0	0
1.29	-3.03854	1.28003	-1.54099	0.851296	0.937116	0.956933	0.312217	-0.187574	-0.211844	0.986182	0.142302	0	0	-0.369964	0.0510851	-0.147835	0.152292	0.0799687	0	0	-0.295041	-0.00986666	-0.00405492	0.267266	-0.464591	-0.308023	1.5619	1.5708	0	0	0.346718	-0.373298	-0.051555	1.80229	0.512473	0	0
1.3	-3.04853	1.28417	-1.52533	0.850209	0.948374	0.956196	0.308447	-0.183999	-0.236415	0.912136	0.146457	0	0	-0.38621	0.0461957	-0.140908	0.13853	0.0850043	0	0	-0.29384	-0.00465131	-0.0100169	0.271731	-0.466448	-0.310632	1.56341	1.5708	0	0	0.350362	-0.372194	-0.0496612	1.80242	0.510737	0	0
1.31	-3.05677	1.28936	-1.51226	0.849322	0.959703	0.955014	0.30312	-0.179889	-0.26258	0.832752	0.148403	0	0	-0.39992	0.0418656	-0.136084	0.127925	0.0905141	0	0	-0.291413	-0.000538233	-0.0151204	0.275857	-0.468442	-0.313114	1.56515	1.5708	0	0	0.353969	-0.37167	-0.0473602	1.80296	0.508591	0	0
1.32	-3.06346	1.29537	-1.50165	0.848695	0.971145	0.953433	0.296064	-0.174901	-0.290976	0.747841	0.148811	0	0	-0.411897	0.0379828	-0.132811	0.119306	0.0974885	0	0	-0.287909	0.00247623	-0.0192511	0.279479	-0.470175	-0.315975	1.56688	1.5708	0	0	0.35736	-0.371321	-0.0452014	1.80352	0.506805	0	0
1.33	-3.06856	1.3024	-1.49396	0.848402	0.982757	0.951459	0.288152	-0.168466	-0.320625	0.65815	0.14747	0	0	-0.422321	0.0346153	-0.13102	0.112063	0.106355	0	0	-0.282965	0.00416154	-0.0221252	0.282614	-0.471349	-0.318842	1.56848	1.5708	0	0	0.360649	-0.370589	-0.0438242	1.80296	0.506865	0	0
1.34	-3.06908	1.31056	-1.49256	0.848554	0.99457	0.949027	0.280672	-0.160856	-0.349047	0.567814	0.14444	0	0	-0.43124	0.0326262	-0.130515	0.106251	0.116659	0	0	-0.276572	0.00325881	-0.0235887	0.285278	-0.471789	-0.321332	1.56989	1.5708	0	0	0.363765	-0.370785	-0.0421671	1.80287	0.506459	0	0
1.35	-3.06072	1.31999	-1.5022	0.849208	1.00653	0.94609	0.275393	-0.152966	-0.372591	0.479187	0.140995	0	0	-0.438115	0.0332546	-0.132697	0.102463	0.127066	0	0	-0.268762	-0.00140823	-0.0233868	0.287625	-0.471561	-0.32321	1.57096	1.5708	0	0	0.366858	-0.371958	-0.0404168	1.8036	0.505136	0	0
1.36	-3.04795	1.32924	-1.51678	0.850179	1.01854	0.942913	0.269195	-0.143116	-0.391128	0.392038	0.13714	0	0	-0.444736	0.0343844	-0.134435	0.0999083	0.137496	0	0	-0.261156	-0.00770218	-0.0226666	0.289855	-0.470903	-0.324727	1.57169	1.5708	0	0	0.37054	-0.373963	-0.0382281	1.80434	0.502878	0	0
1.37	-3.03405	1.33908	-1.53386	0.851506	1.03071	0.939521	0.26348	-0.130451	-0.401791	0.309636	0.134832	0	0	-0.450184	0.0355093	-0.137204	0.0986945	0.148802	0	0	-0.252457	-0.0146366	-0.0204763	0.291616	-0.470289	-0.325679	1.57194	1.5708	0	0	0.374388	-0.376139	-0.0358342	1.80378	0.49964	0	0
1.38	-3.02496	1.34904	-1.54775	0.853091	1.04314	0.936091	0.255553	-0.113268	-0.400057	0.22761	0.129795	0	0	-0.455027	0.0354834	-0.142065	0.0989368	0.161091	0	0	-0.242661	-0.0204358	-0.0163337	0.292704	-0.470484	-0.325586	1.57138	1.5708	0	0	0.377916	-0.377357	-0.0338813	1.80123	0.494975	0	0
1.39	-3.01722	1.35857	-1.5604	0.854702	1.05584	0.932609	0.246513	-0.0956774	-0.390832	0.15392	0.124237	0	0	-0.458804	0.03461	-0.148943	0.102955	0.17322	0	0	-0.232261	-0.0254278	-0.0122181	0.293733	-0.471966	-0.323092	1.57014	1.5708	0	0	0.3802	-0.378305	-0.0330967	1.79807	0.491734	0	0
